<?xml version="1.0" standalone="no"?>
<!DOCTYPE svg PUBLIC "-//W3C//DTD SVG 20010904//EN"
 "http://www.w3.org/TR/2001/REC-SVG-20010904/DTD/svg10.dtd">
<svg version="1.0" xmlns="http://www.w3.org/2000/svg"
 width="1000.000000pt" height="1000.000000pt" viewBox="0 0 1000.000000 1000.000000"
 preserveAspectRatio="xMidYMid meet">
<metadata>
Created by potrace 1.11, written by Peter Selinger 2001-2013
</metadata>
<g transform="translate(0.000000,1000.000000) scale(0.100000,-0.100000)"
fill="#000000" stroke="none">
<path d="M4750 9924 c-423 -28 -699 -70 -1029 -155 -1260 -325 -2336 -1124
-3005 -2231 -566 -938 -802 -2050 -665 -3129 254 -2001 1705 -3641 3670 -4148
259 -67 544 -116 829 -142 174 -16 656 -16 830 0 1175 108 2225 587 3054 1391
1098 1066 1637 2600 1445 4112 -290 2286 -2132 4061 -4444 4283 -155 15 -573
27 -685 19z m50 -2354 c549 -38 835 -142 1072 -388 258 -268 393 -643 375
-1042 -16 -352 -147 -647 -391 -878 -47 -44 -117 -101 -156 -127 -173 -115
-427 -213 -673 -261 -72 -14 -143 -27 -156 -30 -20 -4 -7 -15 84 -65 141 -78
209 -126 298 -205 147 -132 349 -373 494 -589 82 -123 903 -1405 903 -1411 0
-2 -186 -4 -412 -4 l-413 0 -305 478 c-838 1312 -1016 1533 -1350 1673 -143
60 -156 62 -737 66 l-533 5 0 -1111 0 -1111 -330 0 -330 0 0 2505 0 2505 1208
0 c704 0 1267 -4 1352 -10z m3030 -340 l0 -350 -310 0 -310 0 0 350 0 350 310
0 310 0 0 -350z m0 -2845 l0 -1815 -310 0 -310 0 0 1815 0 1815 310 0 310 0 0
-1815z"/>
<path d="M2900 6195 l0 -835 793 0 c954 0 1081 8 1317 86 141 47 243 110 339
209 135 140 207 314 218 520 18 376 -199 677 -571 790 -195 59 -191 59 -1183
62 l-913 4 0 -836z"/>
</g>
</svg>
